<?xml version="1.0" encoding="UTF-8"?>
<svg id="Layer_2" data-name="Layer 2" xmlns="http://www.w3.org/2000/svg" viewBox="0 0 331.08 470.58">
  <defs>
    <style>
      .cls-1 {
        fill: #edb529;
      }

      .cls-1, .cls-2, .cls-3, .cls-4, .cls-5, .cls-6, .cls-7, .cls-8 {
        stroke-width: 0px;
      }

      .cls-2 {
        fill: #ffe36c;
      }

      .cls-3 {
        fill: #936a18;
      }

      .cls-4 {
        fill: #d3d3d3;
      }

      .cls-5 {
        fill: #bcbcbc;
      }

      .cls-6 {
        fill: #d39b1e;
      }

      .cls-7 {
        fill: #b2841d;
      }

      .cls-8 {
        fill: #efefef;
      }
    </style>
  </defs>
  <g id="objects">
    <g>
      <path class="cls-4" d="m302.25,216.69h-46.5v-79.98c0-49.74-40.47-90.21-90.21-90.21s-90.21,40.47-90.21,90.21v79.98H28.83v-79.98C28.83,61.33,90.16,0,165.54,0s136.71,61.33,136.71,136.71v79.98Z"/>
      <path class="cls-5" d="m302.25,136.71v79.98h-46.5v-21.39c18.6-7.44,26.04-22.32,26.04-42.78v-15.81C281.79,64.76,225.93,5.63,155.31.38c.75-.06,1.51-.1,2.27-.15.15,0,.3-.02.45-.03.53-.03,1.07-.06,1.6-.07.21,0,.43-.02.64-.03.3,0,.6-.03.91-.03.6-.03,1.19-.04,1.79-.05.86-.02,1.72-.03,2.58-.03,75.39,0,136.71,61.32,136.71,136.71Z"/>
      <rect class="cls-1" y="199.95" width="331.08" height="270.63" rx="20" ry="20"/>
      <path class="cls-7" d="m198.97,377.91c1.49,9.35-5.73,17.8-15.19,17.8h-36.49c-9.46,0-16.67-8.45-15.19-17.8l5.19-32.57c-7.81-7.46-12.68-17.97-12.68-29.61,0-22.6,18.32-40.92,40.92-40.92s40.92,18.32,40.92,40.92c0,11.64-4.86,22.15-12.68,29.61l5.19,32.57Z"/>
      <path class="cls-6" d="m331.08,218.55v233.43c0,10.28-8.32,18.6-18.6,18.6H74.4c96.72,0,199.95-15.81,199.95-127.41v-94.86c0-26.71-21.65-48.36-48.36-48.36h86.49c10.28,0,18.6,8.32,18.6,18.6Z"/>
      <path class="cls-2" d="m15.81,222.81v124.08s40.93-100.81,125.82-131.13H22.86c-3.89,0-7.05,3.16-7.05,7.05Z"/>
      <path class="cls-3" d="m130.2,318.06c0,11.64,4.86,22.15,12.68,29.61l-5.19,32.57c-.99,6.18,1.84,11.97,6.59,15.18-7.92-1.56-13.49-9.18-12.17-17.5l5.19-32.57c-7.81-7.46-12.68-17.97-12.68-29.61,0-22.6,18.32-40.92,40.92-40.92,6.65,0,12.94,1.59,18.49,4.41-4.05-1.36-8.4-2.08-12.91-2.08-22.6,0-40.92,18.32-40.92,40.92Z"/>
      <path class="cls-8" d="m137.64,10.23S43.71,28.32,36.27,130.2h17.67s3.72-80.93,83.7-119.97Z"/>
    </g>
  </g>
</svg>