<svg xmlns="http://www.w3.org/2000/svg" xmlns:xlink="http://www.w3.org/1999/xlink" width="500" zoomAndPan="magnify" viewBox="0 0 375 374.999991" height="500" preserveAspectRatio="xMidYMid meet" version="1.0"><defs><clipPath id="afe717f1fd"><path d="M 260 48 L 345.625 48 L 345.625 193 L 260 193 Z M 260 48 " clip-rule="nonzero"/></clipPath><clipPath id="9bd5a2e49a"><path d="M 75.917969 240.730469 L 160.300781 240.730469 L 160.300781 327.21875 L 75.917969 327.21875 Z M 75.917969 240.730469 " clip-rule="nonzero"/></clipPath><clipPath id="afb31b917c"><path d="M 29.433594 186 L 131 186 L 131 273.960938 L 29.433594 273.960938 Z M 29.433594 186 " clip-rule="nonzero"/></clipPath></defs><path fill="#009fe3" d="M 242.503906 106.882812 C 244.675781 108.144531 246.855469 109.738281 248.835938 111.269531 C 253.90625 115.1875 258.605469 119.703125 262.746094 124.59375 C 275.777344 139.96875 282.707031 158.375 282.433594 178.617188 C 282.390625 181.320312 284.566406 183.542969 287.269531 183.574219 C 289.972656 183.605469 292.1875 181.441406 292.226562 178.738281 C 292.53125 156.125 284.785156 135.511719 270.234375 118.320312 C 265.617188 112.863281 260.378906 107.824219 254.722656 103.441406 C 252.460938 101.6875 249.933594 99.839844 247.453125 98.402344 C 245.113281 97.039062 242.105469 97.835938 240.738281 100.171875 C 239.378906 102.503906 240.167969 105.515625 242.503906 106.882812 " fill-opacity="1" fill-rule="evenodd"/><path fill="#009fe3" d="M 252.582031 81.757812 C 255.667969 83.5625 258.746094 85.796875 261.566406 87.980469 C 268.734375 93.527344 275.378906 99.910156 281.238281 106.820312 C 299.675781 128.585938 309.480469 154.636719 309.09375 183.277344 C 309.054688 185.984375 311.226562 188.203125 313.929688 188.234375 C 316.632812 188.269531 318.847656 186.101562 318.886719 183.402344 C 319.308594 152.359375 308.65625 124.082031 288.664062 100.5 C 282.328125 93.023438 275.136719 86.125 267.382812 80.121094 C 264.28125 77.730469 260.917969 75.292969 257.535156 73.308594 C 255.203125 71.945312 252.195312 72.726562 250.832031 75.054688 C 249.464844 77.382812 250.25 80.390625 252.582031 81.757812 " fill-opacity="1" fill-rule="evenodd"/><g clip-path="url(#afe717f1fd)"><path fill="#009fe3" d="M 263.132812 57.296875 C 267.082031 59.597656 271.039062 62.476562 274.644531 65.265625 C 283.816406 72.363281 292.316406 80.527344 299.8125 89.371094 C 323.40625 117.214844 335.960938 150.554688 335.460938 187.203125 C 335.421875 189.910156 337.59375 192.128906 340.296875 192.160156 C 343 192.191406 345.214844 190.027344 345.253906 187.328125 C 345.785156 148.269531 332.394531 112.699219 307.242188 83.027344 C 299.265625 73.621094 290.21875 64.933594 280.460938 57.386719 C 276.578125 54.386719 272.332031 51.300781 268.082031 48.820312 C 265.746094 47.457031 262.730469 48.25 261.371094 50.585938 C 260.003906 52.921875 260.796875 55.929688 263.132812 57.296875 " fill-opacity="1" fill-rule="evenodd"/></g><path fill="#009fe3" d="M 201.710938 160.925781 L 206.195312 158.335938 C 209.40625 156.484375 213.078125 156.109375 216.402344 157 C 223.675781 158.945312 228.910156 167.964844 226.953125 175.257812 C 226.0625 178.585938 223.902344 181.582031 220.695312 183.449219 L 216.03125 186.167969 C 215.800781 186.300781 215.5625 186.378906 215.324219 186.414062 C 212.546875 181.867188 209.929688 177.289062 207.484375 172.773438 C 205.582031 169.253906 203.757812 165.667969 202.035156 162.027344 C 201.820312 161.328125 201.703125 160.929688 201.710938 160.925781 " fill-opacity="1" fill-rule="nonzero"/><g clip-path="url(#9bd5a2e49a)"><path fill="#010066" d="M 76.417969 267.789062 L 109.957031 325.859375 C 110.714844 327.109375 112.195312 327.589844 113.515625 326.914062 L 158.59375 308.296875 C 160.1875 307.664062 160.757812 305.710938 159.804688 304.300781 L 123.929688 242.179688 C 123.234375 240.828125 121.445312 240.476562 120.179688 241.234375 L 77.402344 263.902344 C 75.960938 264.625 75.53125 266.46875 76.417969 267.789062 " fill-opacity="1" fill-rule="nonzero"/></g><g clip-path="url(#afb31b917c)"><path fill="#010066" d="M 130.820312 243.78125 C 127.945312 244.382812 125.011719 245.039062 122.019531 245.765625 C 114.722656 247.476562 98.335938 258.761719 79.863281 268.679688 C 63.261719 277.027344 43.503906 275.363281 33.25 258.789062 C 26.261719 247.484375 28.882812 228.875 41.046875 220.503906 C 68.894531 201.34375 94.851562 190.238281 97.472656 189.140625 C 99.027344 188.160156 100.550781 187.148438 102.042969 186.09375 C 103.507812 190.566406 105.136719 194.988281 106.90625 199.351562 C 110.175781 207.410156 113.921875 215.28125 118.0625 222.929688 C 118.320312 223.40625 118.582031 223.890625 118.839844 224.375 C 120.070312 226.667969 121.304688 228.960938 122.6875 231.171875 C 125.335938 235.410156 128.042969 239.621094 130.820312 243.78125 " fill-opacity="1" fill-rule="nonzero"/></g><path fill="#010066" d="M 214.972656 242.410156 C 200.164062 239.125 173.710938 235.96875 137.800781 242.425781 C 134.457031 237.496094 131.289062 232.582031 128.238281 227.703125 C 126.960938 225.65625 125.773438 223.449219 124.605469 221.273438 C 124.34375 220.785156 124.078125 220.296875 123.820312 219.8125 C 119.820312 212.425781 116.164062 204.761719 112.972656 196.894531 C 110.980469 191.976562 109.171875 186.984375 107.582031 181.925781 C 131.335938 162.898438 146.597656 135.3125 154.53125 117.84375 C 155.234375 126.625 156.957031 135.425781 159.140625 143.621094 C 163.4375 159.710938 170.027344 175.367188 177.945312 190 C 179.402344 192.695312 180.863281 195.496094 182.480469 198.085938 C 189.167969 208.785156 196.230469 219.378906 203.964844 229.347656 C 207.414062 233.789062 211.074219 238.21875 214.972656 242.410156 " fill-opacity="1" fill-rule="nonzero"/><path fill="#009fe3" d="M 180.664062 85.121094 C 185.21875 84.0625 191.535156 87.722656 195.082031 90.160156 C 203.613281 96.035156 211.484375 104.816406 217.839844 112.929688 C 225.710938 122.976562 232.738281 133.890625 238.980469 145.011719 C 245.511719 156.644531 251.339844 168.804688 256.183594 181.234375 C 261.378906 194.570312 266.117188 210.039062 267.03125 224.378906 C 267.445312 230.933594 267.191406 240.742188 262.820312 246.414062 C 255.675781 244.230469 247.226562 238.289062 238.023438 229.167969 C 225.65625 216.902344 212.46875 198.96875 200.375 176.621094 C 192.03125 161.207031 186.207031 146.332031 182.601562 132.824219 C 178.644531 118.019531 177.371094 104.910156 178.371094 94.589844 C 178.703125 91.175781 179.289062 88.066406 180.121094 85.296875 C 180.125 85.289062 180.125 85.28125 180.125 85.273438 C 180.304688 85.214844 180.484375 85.164062 180.664062 85.121094 Z M 173.449219 76.519531 C 169.941406 78.542969 167.105469 81.855469 165.011719 86.265625 C 163.011719 90.46875 161.683594 95.714844 161.089844 101.800781 C 160.027344 112.738281 161.347656 126.507812 165.464844 141.933594 C 169.171875 155.816406 175.148438 171.082031 183.707031 186.886719 C 184.847656 189 186.777344 192.753906 188.035156 194.621094 C 201.554688 218.003906 216.183594 236.089844 229.484375 247.277344 C 243.472656 259.039062 256.285156 263.3125 265.339844 258.414062 C 265.5625 258.296875 265.8125 258.167969 266.015625 258.019531 C 284.109375 247.199219 280.222656 213.230469 266.230469 177.324219 C 261.316406 164.714844 255.191406 151.867188 248.382812 139.742188 C 241.566406 127.601562 234.039062 116.132812 226.328125 106.285156 C 207.675781 82.480469 187.738281 68.269531 173.449219 76.519531 " fill-opacity="1" fill-rule="nonzero"/></svg>