<svg xmlns="http://www.w3.org/2000/svg" xmlns:xlink="http://www.w3.org/1999/xlink" width="500" zoomAndPan="magnify" viewBox="0 0 375 374.999991" height="500" preserveAspectRatio="xMidYMid meet" version="1.0"><defs><clipPath id="609976536c"><path d="M 25.613281 49 L 345.863281 49 L 345.863281 330 L 25.613281 330 Z M 25.613281 49 " clip-rule="nonzero"/></clipPath></defs><rect x="-37.5" width="450" fill="#ffffff" y="-37.499999" height="449.999989" fill-opacity="1"/><g clip-path="url(#609976536c)"><path fill="#010062" d="M 191.382812 243.429688 L 191.382812 260.429688 L 205.8125 265.714844 L 205.8125 248.71875 Z M 191.382812 210.253906 L 191.382812 227.25 L 205.8125 232.539062 L 205.8125 215.539062 Z M 263.460938 190.511719 L 231.757812 211.097656 L 231.757812 296.058594 C 242.535156 297.273438 253.121094 298.910156 263.460938 300.972656 Z M 191.382812 177.101562 L 191.382812 194.074219 L 205.8125 199.363281 L 205.8125 182.386719 Z M 101.386719 172.335938 L 69.667969 192.917969 L 69.667969 310.742188 C 79.808594 307.488281 90.417969 304.675781 101.386719 302.328125 Z M 220.097656 154.464844 L 220.097656 171.4375 L 234.53125 176.726562 L 234.53125 159.753906 Z M 191.382812 143.929688 L 191.382812 160.925781 L 205.8125 166.214844 L 205.8125 149.21875 Z M 220.097656 121.285156 L 220.097656 138.289062 L 234.53125 143.554688 L 234.53125 126.582031 Z M 191.382812 110.757812 L 191.382812 127.753906 L 205.8125 133.039062 L 205.8125 116.039062 Z M 220.097656 88.117188 L 220.097656 105.113281 L 234.53125 110.402344 L 234.53125 93.402344 Z M 191.382812 77.582031 L 191.382812 94.578125 L 205.8125 99.863281 L 205.8125 82.867188 Z M 172.222656 61.300781 L 140.507812 81.882812 L 140.507812 295.949219 C 150.964844 294.839844 161.554688 294.101562 172.222656 293.792969 Z M 178.859375 49.042969 L 246.835938 73.949219 L 246.835938 178.949219 L 215.351562 199.40625 L 215.351562 294.628906 C 218.582031 294.820312 221.84375 295.070312 225.078125 295.347656 L 225.078125 207.484375 L 270.117188 178.257812 L 308.476562 203.167969 L 308.476562 312.902344 C 321.9375 317.566406 334.460938 322.957031 345.800781 329.019531 L 25.679688 329.019531 C 37.023438 323 49.546875 317.628906 62.988281 313.011719 L 62.988281 189.316406 L 108.027344 160.082031 L 133.84375 176.828125 L 133.84375 78.296875 Z M 178.859375 49.042969 " fill-opacity="1" fill-rule="evenodd"/></g></svg>