<svg xmlns="http://www.w3.org/2000/svg" xmlns:xlink="http://www.w3.org/1999/xlink" width="500" zoomAndPan="magnify" viewBox="0 0 375 374.999991" height="500" preserveAspectRatio="xMidYMid meet" version="1.0"><defs><clipPath id="7186c1f26d"><path d="M 43.804688 60.507812 L 331 60.507812 L 331 314.757812 L 43.804688 314.757812 Z M 43.804688 60.507812 " clip-rule="nonzero"/></clipPath><clipPath id="e9a4575c80"><path d="M 109 108.410156 L 266 108.410156 L 266 201 L 109 201 Z M 109 108.410156 " clip-rule="nonzero"/></clipPath><clipPath id="9eca708799"><path d="M 130.644531 185 L 244.296875 185 L 244.296875 208.898438 L 130.644531 208.898438 Z M 130.644531 185 " clip-rule="nonzero"/></clipPath></defs><g clip-path="url(#7186c1f26d)"><path fill="#010066" d="M 330.988281 244.75 L 330.988281 82.59375 C 330.988281 81.871094 330.953125 81.148438 330.882812 80.429688 C 330.808594 79.707031 330.703125 78.992188 330.5625 78.285156 C 330.421875 77.574219 330.246094 76.875 330.039062 76.183594 C 329.828125 75.488281 329.585938 74.808594 329.308594 74.140625 C 329.03125 73.472656 328.722656 72.820312 328.382812 72.183594 C 328.042969 71.546875 327.671875 70.925781 327.273438 70.324219 C 326.871094 69.722656 326.441406 69.140625 325.984375 68.582031 C 325.523438 68.023438 325.039062 67.488281 324.53125 66.976562 C 324.019531 66.464844 323.484375 65.980469 322.925781 65.523438 C 322.367188 65.0625 321.789062 64.632812 321.1875 64.230469 C 320.585938 63.828125 319.96875 63.457031 319.332031 63.117188 C 318.695312 62.777344 318.042969 62.46875 317.375 62.191406 C 316.707031 61.914062 316.03125 61.671875 315.339844 61.460938 C 314.648438 61.25 313.949219 61.074219 313.238281 60.933594 C 312.53125 60.792969 311.816406 60.6875 311.097656 60.617188 C 310.378906 60.546875 309.660156 60.507812 308.9375 60.507812 L 65.921875 60.507812 C 65.199219 60.507812 64.480469 60.546875 63.761719 60.617188 C 63.042969 60.6875 62.328125 60.792969 61.621094 60.933594 C 60.914062 61.074219 60.214844 61.25 59.523438 61.460938 C 58.832031 61.671875 58.152344 61.914062 57.484375 62.191406 C 56.816406 62.46875 56.164062 62.777344 55.527344 63.117188 C 54.890625 63.457031 54.273438 63.828125 53.671875 64.230469 C 53.070312 64.632812 52.492188 65.0625 51.933594 65.523438 C 51.375 65.980469 50.84375 66.464844 50.332031 66.976562 C 49.820312 67.488281 49.335938 68.023438 48.878906 68.582031 C 48.421875 69.140625 47.992188 69.722656 47.589844 70.324219 C 47.1875 70.925781 46.816406 71.542969 46.476562 72.183594 C 46.136719 72.820312 45.828125 73.472656 45.550781 74.140625 C 45.273438 74.808594 45.03125 75.488281 44.824219 76.183594 C 44.613281 76.875 44.4375 77.574219 44.296875 78.285156 C 44.15625 78.992188 44.050781 79.707031 43.980469 80.429688 C 43.910156 81.148438 43.875 81.871094 43.875 82.59375 L 43.875 244.75 C 43.871094 245.472656 43.910156 246.195312 43.980469 246.914062 C 44.050781 247.632812 44.15625 248.347656 44.296875 249.058594 C 44.4375 249.765625 44.613281 250.46875 44.824219 251.160156 C 45.03125 251.851562 45.273438 252.53125 45.550781 253.199219 C 45.828125 253.867188 46.136719 254.519531 46.476562 255.160156 C 46.816406 255.796875 47.1875 256.417969 47.589844 257.015625 C 47.988281 257.617188 48.417969 258.199219 48.878906 258.757812 C 49.335938 259.316406 49.820312 259.851562 50.332031 260.363281 C 50.839844 260.875 51.375 261.359375 51.933594 261.820312 C 52.492188 262.277344 53.070312 262.707031 53.671875 263.109375 C 54.273438 263.511719 54.890625 263.882812 55.527344 264.222656 C 56.164062 264.566406 56.816406 264.875 57.484375 265.152344 C 58.152344 265.425781 58.832031 265.671875 59.523438 265.882812 C 60.214844 266.089844 60.914062 266.265625 61.621094 266.40625 C 62.328125 266.546875 63.042969 266.65625 63.761719 266.726562 C 64.480469 266.796875 65.199219 266.832031 65.921875 266.832031 L 157.347656 266.832031 L 157.347656 279.609375 C 157.347656 280.195312 157.316406 280.777344 157.261719 281.355469 C 157.203125 281.9375 157.117188 282.515625 157.003906 283.085938 C 156.890625 283.660156 156.75 284.226562 156.582031 284.785156 C 156.410156 285.34375 156.214844 285.890625 155.992188 286.429688 C 155.769531 286.96875 155.519531 287.496094 155.246094 288.011719 C 154.972656 288.527344 154.671875 289.027344 154.347656 289.511719 C 154.023438 289.996094 153.675781 290.464844 153.308594 290.914062 C 152.9375 291.367188 152.546875 291.796875 152.136719 292.210938 C 151.722656 292.625 151.292969 293.015625 150.839844 293.386719 C 150.390625 293.757812 149.921875 294.101562 149.4375 294.425781 C 148.953125 294.75 148.453125 295.050781 147.941406 295.328125 C 147.425781 295.601562 146.902344 295.851562 146.363281 296.074219 C 145.824219 296.296875 145.277344 296.492188 144.71875 296.664062 C 144.160156 296.832031 143.597656 296.972656 143.023438 297.089844 C 142.453125 297.203125 141.878906 297.289062 141.296875 297.34375 C 140.71875 297.402344 140.136719 297.429688 139.554688 297.429688 L 119.640625 297.429688 C 119.074219 297.429688 118.507812 297.457031 117.945312 297.515625 C 117.382812 297.570312 116.820312 297.652344 116.265625 297.761719 C 115.710938 297.875 115.160156 298.011719 114.621094 298.175781 C 114.078125 298.339844 113.542969 298.53125 113.019531 298.75 C 112.496094 298.964844 111.984375 299.207031 111.484375 299.476562 C 110.988281 299.742188 110.5 300.035156 110.03125 300.351562 C 109.558594 300.664062 109.105469 301.003906 108.667969 301.363281 C 108.226562 301.722656 107.808594 302.105469 107.410156 302.503906 C 107.007812 302.90625 106.628906 303.328125 106.269531 303.765625 C 105.910156 304.203125 105.570312 304.660156 105.257812 305.132812 C 104.941406 305.601562 104.652344 306.089844 104.382812 306.589844 C 104.117188 307.089844 103.875 307.601562 103.65625 308.125 C 103.441406 308.652344 103.25 309.183594 103.085938 309.726562 C 102.921875 310.269531 102.785156 310.820312 102.671875 311.375 C 102.5625 311.933594 102.480469 312.492188 102.425781 313.058594 C 102.367188 313.625 102.339844 314.191406 102.339844 314.757812 L 272.523438 314.757812 C 272.523438 314.191406 272.492188 313.625 272.4375 313.058594 C 272.382812 312.492188 272.300781 311.933594 272.1875 311.375 C 272.078125 310.820312 271.941406 310.269531 271.777344 309.726562 C 271.613281 309.183594 271.421875 308.652344 271.203125 308.125 C 270.988281 307.601562 270.746094 307.089844 270.480469 306.589844 C 270.210938 306.089844 269.921875 305.601562 269.605469 305.132812 C 269.292969 304.660156 268.953125 304.203125 268.59375 303.765625 C 268.234375 303.328125 267.855469 302.90625 267.453125 302.503906 C 267.054688 302.105469 266.632812 301.722656 266.195312 301.363281 C 265.757812 301.003906 265.304688 300.664062 264.832031 300.351562 C 264.363281 300.035156 263.875 299.742188 263.375 299.476562 C 262.878906 299.207031 262.367188 298.964844 261.84375 298.75 C 261.320312 298.53125 260.785156 298.339844 260.242188 298.175781 C 259.703125 298.011719 259.152344 297.875 258.597656 297.761719 C 258.039062 297.652344 257.480469 297.570312 256.917969 297.515625 C 256.351562 297.457031 255.789062 297.429688 255.222656 297.429688 L 235.308594 297.429688 C 234.726562 297.429688 234.144531 297.402344 233.5625 297.34375 C 232.984375 297.289062 232.40625 297.203125 231.835938 297.089844 C 231.265625 296.972656 230.699219 296.832031 230.140625 296.664062 C 229.585938 296.492188 229.035156 296.296875 228.5 296.074219 C 227.960938 295.851562 227.433594 295.601562 226.917969 295.328125 C 226.40625 295.050781 225.90625 294.75 225.421875 294.425781 C 224.9375 294.101562 224.46875 293.757812 224.019531 293.386719 C 223.570312 293.015625 223.136719 292.625 222.726562 292.210938 C 222.3125 291.796875 221.921875 291.367188 221.554688 290.914062 C 221.183594 290.464844 220.835938 289.996094 220.511719 289.511719 C 220.1875 289.027344 219.890625 288.527344 219.613281 288.011719 C 219.339844 287.496094 219.089844 286.96875 218.867188 286.429688 C 218.644531 285.890625 218.449219 285.34375 218.28125 284.785156 C 218.109375 284.226562 217.96875 283.660156 217.855469 283.085938 C 217.742188 282.515625 217.65625 281.9375 217.597656 281.355469 C 217.542969 280.777344 217.511719 280.195312 217.511719 279.609375 L 217.511719 266.832031 L 308.9375 266.832031 C 309.660156 266.832031 310.378906 266.796875 311.097656 266.726562 C 311.816406 266.65625 312.53125 266.546875 313.238281 266.40625 C 313.949219 266.265625 314.648438 266.089844 315.339844 265.882812 C 316.03125 265.671875 316.707031 265.425781 317.375 265.152344 C 318.042969 264.875 318.695312 264.566406 319.332031 264.222656 C 319.96875 263.882812 320.585938 263.511719 321.1875 263.109375 C 321.789062 262.707031 322.367188 262.277344 322.925781 261.820312 C 323.484375 261.359375 324.019531 260.875 324.527344 260.363281 C 325.039062 259.851562 325.523438 259.316406 325.980469 258.757812 C 326.441406 258.199219 326.871094 257.617188 327.269531 257.015625 C 327.671875 256.417969 328.042969 255.796875 328.382812 255.160156 C 328.722656 254.519531 329.03125 253.867188 329.308594 253.199219 C 329.585938 252.53125 329.828125 251.851562 330.039062 251.160156 C 330.246094 250.46875 330.421875 249.765625 330.5625 249.058594 C 330.703125 248.347656 330.808594 247.632812 330.882812 246.914062 C 330.953125 246.195312 330.988281 245.472656 330.988281 244.75 Z M 57.332031 236.597656 L 57.332031 83.554688 C 57.332031 82.945312 57.390625 82.339844 57.507812 81.742188 C 57.628906 81.144531 57.804688 80.566406 58.039062 80.003906 C 58.269531 79.4375 58.554688 78.902344 58.894531 78.398438 C 59.230469 77.890625 59.617188 77.421875 60.046875 76.992188 C 60.476562 76.558594 60.945312 76.175781 61.449219 75.835938 C 61.957031 75.496094 62.492188 75.210938 63.054688 74.980469 C 63.617188 74.746094 64.195312 74.570312 64.792969 74.449219 C 65.390625 74.332031 65.992188 74.273438 66.601562 74.273438 L 308.261719 74.273438 C 308.867188 74.273438 309.472656 74.332031 310.070312 74.449219 C 310.664062 74.570312 311.246094 74.746094 311.808594 74.980469 C 312.371094 75.210938 312.902344 75.496094 313.410156 75.835938 C 313.914062 76.175781 314.382812 76.558594 314.8125 76.992188 C 315.246094 77.421875 315.628906 77.890625 315.964844 78.398438 C 316.304688 78.902344 316.589844 79.4375 316.824219 80.003906 C 317.054688 80.566406 317.230469 81.144531 317.351562 81.742188 C 317.46875 82.339844 317.527344 82.945312 317.527344 83.554688 L 317.527344 236.597656 C 317.527344 237.207031 317.46875 237.8125 317.351562 238.410156 C 317.230469 239.007812 317.054688 239.585938 316.824219 240.152344 C 316.589844 240.714844 316.304688 241.25 315.964844 241.753906 C 315.628906 242.261719 315.246094 242.730469 314.8125 243.160156 C 314.382812 243.59375 313.914062 243.976562 313.410156 244.316406 C 312.902344 244.65625 312.371094 244.941406 311.808594 245.175781 C 311.246094 245.40625 310.664062 245.582031 310.070312 245.703125 C 309.472656 245.820312 308.867188 245.878906 308.261719 245.878906 L 66.601562 245.878906 C 65.992188 245.878906 65.390625 245.820312 64.792969 245.703125 C 64.195312 245.582031 63.617188 245.40625 63.054688 245.175781 C 62.492188 244.941406 61.957031 244.65625 61.449219 244.316406 C 60.945312 243.976562 60.476562 243.59375 60.046875 243.160156 C 59.617188 242.730469 59.230469 242.261719 58.894531 241.753906 C 58.554688 241.25 58.269531 240.714844 58.039062 240.152344 C 57.804688 239.585938 57.628906 239.007812 57.507812 238.410156 C 57.390625 237.8125 57.332031 237.207031 57.332031 236.597656 Z M 57.332031 236.597656 " fill-opacity="1" fill-rule="nonzero"/></g><path fill="#009fe3" d="M 183.511719 128.429688 C 183.511719 126.25 185.285156 124.472656 187.46875 124.472656 C 189.652344 124.472656 191.425781 126.25 191.425781 128.429688 C 191.425781 130.613281 189.652344 132.390625 187.46875 132.390625 C 185.285156 132.390625 183.511719 130.613281 183.511719 128.429688 Z M 197.667969 137.410156 C 196.660156 137.410156 195.84375 138.230469 195.84375 139.238281 C 195.84375 143.222656 193.035156 146.566406 189.296875 147.402344 L 189.296875 135.8125 C 192.613281 134.992188 195.082031 131.996094 195.082031 128.429688 C 195.082031 124.234375 191.664062 120.820312 187.46875 120.820312 C 183.273438 120.820312 179.859375 124.234375 179.859375 128.429688 C 179.859375 131.996094 182.328125 134.992188 185.644531 135.8125 L 185.644531 147.402344 C 181.902344 146.566406 179.097656 143.222656 179.097656 139.238281 C 179.097656 138.230469 178.277344 137.410156 177.269531 137.410156 C 176.261719 137.410156 175.445312 138.230469 175.445312 139.238281 C 175.445312 145.867188 180.839844 151.261719 187.46875 151.261719 C 194.101562 151.261719 199.496094 145.867188 199.496094 139.238281 C 199.496094 138.230469 198.675781 137.410156 197.667969 137.410156 " fill-opacity="1" fill-rule="nonzero"/><g clip-path="url(#e9a4575c80)"><path fill="#009fe3" d="M 244.09375 185.425781 L 244.09375 173.214844 C 244.09375 173.214844 223.363281 158.523438 187.46875 158.523438 C 151.578125 158.523438 130.847656 173.214844 130.847656 173.214844 L 130.847656 185.421875 C 120.140625 180.109375 115.683594 173.789062 117.613281 166.59375 C 123.738281 143.769531 162.253906 115.714844 187.46875 115.714844 C 212.683594 115.714844 251.203125 143.769531 257.328125 166.59375 C 259.257812 173.792969 254.800781 180.117188 244.09375 185.425781 Z M 264.382812 164.699219 C 261.007812 152.125 249.792969 138.210938 233.605469 126.53125 C 217.882812 115.183594 200.636719 108.410156 187.46875 108.410156 C 174.300781 108.410156 157.054688 115.183594 141.332031 126.53125 C 125.148438 138.210938 113.929688 152.125 110.554688 164.699219 C 108.355469 172.90625 110.183594 184.457031 130.847656 193.480469 L 130.847656 200.996094 L 130.886719 200.996094 C 131.066406 198.644531 132.519531 196.402344 134.996094 194.335938 C 135.828125 194.09375 136.570312 193.570312 137.058594 192.804688 C 146.503906 186.566406 165.761719 182.289062 187.804688 182.289062 C 209.460938 182.289062 228.09375 186.417969 237.511719 192.480469 C 238.050781 193.605469 239.097656 194.347656 240.265625 194.523438 C 242.558594 196.539062 243.882812 198.714844 244.054688 200.996094 L 244.09375 200.996094 L 244.09375 193.484375 C 264.753906 184.464844 266.585938 172.914062 264.382812 164.699219 " fill-opacity="1" fill-rule="nonzero"/></g><g clip-path="url(#9eca708799)"><path fill="#009fe3" d="M 187.804688 185.03125 C 156.535156 185.03125 130.847656 193.632812 130.847656 204.242188 C 130.847656 214.855469 156.535156 204.007812 187.804688 204.007812 C 219.078125 204.007812 244.09375 214.855469 244.09375 204.242188 C 244.09375 193.632812 219.078125 185.03125 187.804688 185.03125 " fill-opacity="1" fill-rule="nonzero"/></g></svg>