<svg xmlns="http://www.w3.org/2000/svg" xmlns:xlink="http://www.w3.org/1999/xlink" width="500" zoomAndPan="magnify" viewBox="0 0 375 374.999991" height="500" preserveAspectRatio="xMidYMid meet" version="1.0"><defs><clipPath id="42088a8339"><path d="M 45.8125 45.0625 L 338.3125 45.0625 L 338.3125 337.5625 L 45.8125 337.5625 Z M 45.8125 45.0625 " clip-rule="nonzero"/></clipPath><clipPath id="76a5b0c18c"><path d="M 45.8125 45.0625 L 215 45.0625 L 215 214 L 45.8125 214 Z M 45.8125 45.0625 " clip-rule="nonzero"/></clipPath></defs><g clip-path="url(#42088a8339)"><path fill="#010066" d="M 325.21875 303.382812 C 325.457031 302.035156 325.597656 300.667969 325.597656 299.253906 L 325.597656 194.09375 C 325.597656 180.105469 314.226562 168.761719 300.214844 168.761719 L 214.519531 168.761719 L 214.519531 70.394531 C 214.519531 56.40625 203.148438 45.0625 189.136719 45.0625 L 83.8125 45.0625 C 69.800781 45.0625 58.429688 56.40625 58.429688 70.394531 L 58.429688 175.554688 C 58.429688 176.945312 58.574219 178.335938 58.808594 179.683594 L 45.8125 213.863281 L 80.652344 200.675781 C 81.691406 200.792969 82.726562 200.886719 83.8125 200.886719 L 169.511719 200.886719 L 169.511719 299.253906 C 169.511719 313.242188 180.878906 324.585938 194.890625 324.585938 L 300.214844 324.585938 C 301.300781 324.585938 302.339844 324.492188 303.375 324.375 L 338.21875 337.5625 Z M 325.21875 303.382812 " fill-opacity="1" fill-rule="nonzero"/></g><path fill="#ffffff" d="M 248.746094 289.511719 C 252.921875 289.511719 256.316406 292.90625 256.316406 297.082031 C 256.316406 301.257812 252.921875 304.632812 248.746094 304.632812 C 244.546875 304.632812 241.171875 301.257812 241.171875 297.082031 C 241.171875 292.90625 244.546875 289.511719 248.746094 289.511719 Z M 248.746094 289.511719 " fill-opacity="1" fill-rule="nonzero"/><path fill="#ffffff" d="M 289.128906 226.578125 C 289.128906 245.328125 274.667969 260.78125 256.316406 262.40625 L 256.316406 281.964844 L 241.171875 281.964844 L 241.171875 245.847656 L 249.878906 247.191406 C 250.9375 247.359375 252.023438 247.429688 253.085938 247.429688 C 264.597656 247.429688 273.984375 238.0625 273.984375 226.578125 C 273.984375 215.066406 264.597656 205.699219 253.085938 205.699219 C 241.574219 205.699219 232.1875 215.066406 232.1875 226.578125 L 217.042969 226.578125 C 217.042969 206.738281 233.222656 190.582031 253.085938 190.582031 C 272.972656 190.582031 289.128906 206.738281 289.128906 226.578125 Z M 289.128906 226.578125 " fill-opacity="1" fill-rule="nonzero"/><g clip-path="url(#76a5b0c18c)"><path fill="#009fe3" d="M 214.519531 70.394531 L 214.519531 168.761719 L 194.890625 168.761719 C 180.878906 168.761719 169.511719 180.105469 169.511719 194.09375 L 169.511719 200.886719 L 83.8125 200.886719 C 82.726562 200.886719 81.691406 200.792969 80.652344 200.675781 L 45.8125 213.863281 L 58.808594 179.683594 C 58.574219 178.335938 58.429688 176.945312 58.429688 175.554688 L 58.429688 70.394531 C 58.429688 56.40625 69.800781 45.0625 83.8125 45.0625 L 189.136719 45.0625 C 203.148438 45.0625 214.519531 56.40625 214.519531 70.394531 Z M 133.726562 136.398438 C 152.101562 134.769531 166.5625 119.320312 166.5625 100.566406 C 166.5625 80.726562 150.378906 64.570312 130.519531 64.570312 C 110.632812 64.570312 94.476562 80.726562 94.476562 100.566406 L 109.617188 100.566406 C 109.617188 89.054688 118.984375 79.691406 130.519531 79.691406 C 142.03125 79.691406 151.417969 89.054688 151.417969 100.566406 C 151.417969 112.054688 142.03125 121.417969 130.519531 121.417969 C 129.433594 121.417969 128.371094 121.347656 127.308594 121.183594 L 118.582031 119.835938 L 118.582031 155.953125 L 133.726562 155.953125 Z M 133.726562 171.074219 C 133.726562 166.898438 130.351562 163.5 126.15625 163.5 C 121.980469 163.5 118.582031 166.898438 118.582031 171.074219 C 118.582031 175.246094 121.980469 178.621094 126.15625 178.621094 C 130.351562 178.621094 133.726562 175.246094 133.726562 171.074219 Z M 133.726562 171.074219 " fill-opacity="1" fill-rule="nonzero"/></g><path fill="#ffffff" d="M 166.5625 100.566406 C 166.5625 119.320312 152.101562 134.769531 133.726562 136.398438 L 133.726562 155.953125 L 118.582031 155.953125 L 118.582031 119.835938 L 127.308594 121.183594 C 128.371094 121.347656 129.433594 121.417969 130.519531 121.417969 C 142.03125 121.417969 151.417969 112.054688 151.417969 100.566406 C 151.417969 89.054688 142.03125 79.691406 130.519531 79.691406 C 118.984375 79.691406 109.617188 89.054688 109.617188 100.566406 L 94.476562 100.566406 C 94.476562 80.726562 110.632812 64.570312 130.519531 64.570312 C 150.378906 64.570312 166.5625 80.726562 166.5625 100.566406 Z M 166.5625 100.566406 " fill-opacity="1" fill-rule="nonzero"/><path fill="#ffffff" d="M 126.15625 163.5 C 130.351562 163.5 133.726562 166.898438 133.726562 171.074219 C 133.726562 175.246094 130.351562 178.621094 126.15625 178.621094 C 121.980469 178.621094 118.582031 175.246094 118.582031 171.074219 C 118.582031 166.898438 121.980469 163.5 126.15625 163.5 Z M 126.15625 163.5 " fill-opacity="1" fill-rule="nonzero"/></svg>