<svg xmlns="http://www.w3.org/2000/svg" xmlns:xlink="http://www.w3.org/1999/xlink" width="500" zoomAndPan="magnify" viewBox="0 0 375 374.999991" height="500" preserveAspectRatio="xMidYMid meet" version="1.0"><defs><clipPath id="e4663f6c3e"><path d="M 38 45.65625 L 300 45.65625 L 300 308 L 38 308 Z M 38 45.65625 " clip-rule="nonzero"/></clipPath><clipPath id="50e003c3ec"><path d="M 184 202 L 322 202 L 322 329.15625 L 184 329.15625 Z M 184 202 " clip-rule="nonzero"/></clipPath></defs><g clip-path="url(#e4663f6c3e)"><path fill="#009fe3" d="M 111.976562 170.644531 L 38.609375 170.644531 C 40.007812 143.761719 49.09375 118.972656 64.464844 98.722656 C 81.234375 105.707031 99.75 110.945312 118.964844 114.433594 C 114.773438 132.242188 112.328125 151.445312 111.976562 170.644531 Z M 130.84375 116.179688 C 142.722656 117.578125 154.949219 118.625 167.179688 118.625 C 179.058594 118.625 190.9375 117.925781 202.464844 116.53125 C 206.308594 133.988281 208.753906 152.140625 209.101562 170.996094 L 124.207031 170.996094 C 124.90625 151.792969 127 133.636719 130.84375 116.179688 Z M 111.976562 182.867188 C 112.328125 202.765625 114.773438 221.96875 118.964844 240.125 C 99.75 243.265625 81.582031 248.503906 64.8125 255.488281 C 49.441406 235.238281 39.660156 210.097656 38.609375 182.867188 Z M 124.207031 182.867188 L 209.453125 182.867188 C 209.101562 202.070312 206.65625 220.574219 202.8125 238.03125 C 191.285156 236.632812 179.40625 235.933594 167.527344 235.933594 C 155.300781 235.933594 143.070312 236.632812 131.195312 238.378906 C 127 220.921875 124.554688 202.070312 124.207031 182.867188 Z M 221.679688 182.867188 L 299.9375 182.867188 C 298.542969 210.449219 288.757812 235.933594 272.6875 256.535156 C 254.871094 248.851562 235.304688 243.265625 214.691406 239.773438 C 218.886719 221.621094 221.332031 202.417969 221.679688 182.867188 Z M 221.679688 170.644531 C 221.332031 151.445312 218.886719 132.589844 215.042969 114.433594 C 235.65625 110.945312 255.570312 105.355469 273.386719 97.328125 C 289.109375 117.925781 298.890625 143.0625 299.9375 170.296875 L 221.679688 170.296875 Z M 265 87.898438 C 248.582031 94.882812 230.765625 99.769531 211.898438 102.914062 C 206.308594 82.664062 198.621094 63.808594 188.488281 47.75 C 218.886719 51.9375 245.4375 66.601562 265 87.898438 Z M 173.816406 47.050781 C 184.996094 63.113281 193.730469 83.011719 199.671875 104.308594 C 189.1875 105.355469 178.359375 106.054688 167.179688 106.054688 C 155.648438 106.054688 144.46875 105.355469 133.640625 103.960938 C 139.578125 82.3125 148.3125 62.761719 159.492188 46.703125 C 159.492188 46.703125 162.289062 45.65625 166.480469 45.65625 C 171.371094 46.003906 173.816406 47.050781 173.816406 47.050781 Z M 144.46875 48.449219 C 135.035156 64.160156 127.351562 82.664062 121.761719 102.5625 C 104.292969 99.769531 87.871094 95.230469 72.5 88.949219 C 91.015625 68.347656 116.171875 53.683594 144.46875 48.449219 Z M 73.199219 265.261719 C 88.222656 259.328125 104.640625 254.789062 122.109375 251.996094 C 127.699219 271.546875 135.035156 289.703125 144.46875 305.414062 C 116.519531 299.828125 91.714844 285.511719 73.199219 265.261719 Z M 160.191406 307.160156 C 149.011719 291.097656 140.277344 271.546875 133.988281 250.25 C 144.820312 248.851562 156 248.15625 167.527344 248.15625 C 178.359375 248.15625 189.1875 248.851562 199.671875 249.898438 C 193.382812 271.546875 184.648438 291.097656 173.46875 307.160156 C 172.070312 307.160156 170.671875 307.507812 169.273438 307.507812 C 166.128906 307.507812 163.335938 307.507812 160.191406 307.160156 Z M 188.839844 306.113281 C 198.621094 290.050781 206.308594 271.894531 211.898438 251.644531 C 230.765625 254.789062 248.230469 259.675781 264.652344 266.308594 C 244.738281 287.257812 218.535156 301.574219 188.839844 306.113281 Z M 188.839844 306.113281 " fill-opacity="1" fill-rule="nonzero"/></g><g clip-path="url(#50e003c3ec)"><path fill="#010066" d="M 319.851562 246.410156 L 255.21875 202.765625 C 254.171875 202.070312 252.773438 202.070312 251.375 202.765625 L 186.394531 246.410156 C 185.347656 247.105469 184.996094 248.15625 184.996094 249.203125 L 184.996094 325.664062 C 184.996094 327.410156 186.394531 329.15625 188.488281 329.15625 L 227.621094 329.15625 C 229.367188 329.15625 231.113281 327.757812 231.113281 325.664062 L 231.113281 275.738281 L 275.832031 275.738281 L 275.832031 325.664062 C 275.832031 327.410156 277.230469 329.15625 279.324219 329.15625 L 318.457031 329.15625 C 320.203125 329.15625 321.949219 327.757812 321.949219 325.664062 L 321.949219 249.203125 C 321.601562 248.15625 320.902344 247.105469 319.851562 246.410156 Z M 319.851562 246.410156 " fill-opacity="1" fill-rule="nonzero"/></g><path fill="#010066" d="M 210.851562 204.164062 L 210.851562 182.867188 L 188.140625 182.867188 L 188.140625 220.222656 " fill-opacity="1" fill-rule="nonzero"/><path fill="#010066" d="M 188.140625 223.367188 C 186.394531 223.367188 184.648438 221.96875 184.648438 219.875 L 184.648438 182.867188 C 184.648438 181.121094 186.042969 179.375 188.140625 179.375 L 210.851562 179.375 C 212.597656 179.375 214.34375 180.769531 214.34375 182.867188 L 214.34375 204.164062 C 214.34375 205.910156 212.945312 207.65625 210.851562 207.65625 C 209.101562 207.65625 207.355469 206.257812 207.355469 204.164062 L 207.355469 186.007812 L 191.632812 186.007812 L 191.632812 219.875 C 191.632812 221.96875 190.238281 223.367188 188.140625 223.367188 Z M 188.140625 223.367188 " fill-opacity="1" fill-rule="nonzero"/><path fill="#010066" d="M 346.753906 234.539062 L 260.109375 181.121094 C 255.917969 178.675781 250.679688 178.675781 246.484375 181.121094 L 160.890625 234.539062 C 154.949219 238.03125 151.109375 245.710938 154.949219 252.34375 C 156.699219 255.488281 160.191406 258.28125 164.382812 259.328125 C 168.226562 260.375 171.71875 259.675781 174.515625 257.929688 L 253.125 208.703125 L 333.128906 257.929688 C 335.226562 259.328125 337.671875 260.023438 339.765625 260.023438 C 344.308594 260.023438 348.851562 257.582031 351.296875 253.390625 C 355.140625 246.757812 353.042969 238.378906 346.753906 234.539062 Z M 346.753906 234.539062 " fill-opacity="1" fill-rule="nonzero"/></svg>