<svg xmlns="http://www.w3.org/2000/svg" xmlns:xlink="http://www.w3.org/1999/xlink" width="500" zoomAndPan="magnify" viewBox="0 0 375 374.999991" height="500" preserveAspectRatio="xMidYMid meet" version="1.0"><defs><clipPath id="1c44cab1fc"><path d="M 49.351562 49.351562 L 325.351562 49.351562 L 325.351562 325.351562 L 49.351562 325.351562 Z M 49.351562 49.351562 " clip-rule="nonzero"/></clipPath></defs><g clip-path="url(#1c44cab1fc)"><path fill="#121111" d="M 325.351562 187.351562 C 325.351562 263.574219 263.574219 325.351562 187.351562 325.351562 C 111.140625 325.351562 49.351562 263.574219 49.351562 187.351562 C 49.351562 111.140625 111.140625 49.351562 187.351562 49.351562 C 263.574219 49.351562 325.351562 111.140625 325.351562 187.351562 " fill-opacity="1" fill-rule="nonzero"/></g><path fill="#eaff26" d="M 187.351562 168.660156 L 106.167969 112.015625 L 106.167969 137.703125 L 187.351562 194.359375 L 268.535156 137.703125 L 268.535156 112.015625 L 187.351562 168.660156 " fill-opacity="1" fill-rule="nonzero"/><path fill="#eaff26" d="M 187.351562 202.824219 L 106.167969 146.179688 L 106.167969 171.878906 L 187.351562 228.523438 L 268.535156 171.878906 L 268.535156 146.179688 L 187.351562 202.824219 " fill-opacity="1" fill-rule="nonzero"/><path fill="#eaff26" d="M 187.351562 237 L 106.167969 180.34375 L 106.167969 206.042969 L 187.351562 262.683594 L 268.535156 206.042969 L 268.535156 180.34375 L 187.351562 237 " fill-opacity="1" fill-rule="nonzero"/></svg>