<svg xmlns="http://www.w3.org/2000/svg" xmlns:xlink="http://www.w3.org/1999/xlink" width="500" zoomAndPan="magnify" viewBox="0 0 375 374.999991" height="500" preserveAspectRatio="xMidYMid meet" version="1.0"><defs><clipPath id="4f4c40309e"><path d="M 304 188 L 328 188 L 328 273.652344 L 304 273.652344 Z M 304 188 " clip-rule="nonzero"/></clipPath><clipPath id="e55fa96097"><path d="M 135 171 L 342.554688 171 L 342.554688 253 L 135 253 Z M 135 171 " clip-rule="nonzero"/></clipPath><clipPath id="037e80cbec"><path d="M 33 101.152344 L 57 101.152344 L 57 273.652344 L 33 273.652344 Z M 33 101.152344 " clip-rule="nonzero"/></clipPath></defs><path fill="#010066" d="M 121.203125 167.964844 C 121.203125 174.335938 116.03125 179.496094 109.644531 179.496094 L 63.648438 179.496094 C 57.261719 179.496094 52.089844 174.335938 52.089844 167.964844 C 52.089844 161.59375 57.261719 156.433594 63.648438 156.433594 L 109.644531 156.433594 C 116.03125 156.433594 121.203125 161.59375 121.203125 167.964844 " fill-opacity="1" fill-rule="nonzero"/><g clip-path="url(#4f4c40309e)"><path fill="#010066" d="M 304.289062 195.660156 C 304.289062 191.84375 307.382812 188.757812 311.191406 188.757812 L 320.996094 188.757812 C 324.820312 188.757812 327.910156 191.84375 327.910156 195.660156 L 327.910156 266.75 C 327.910156 270.566406 324.820312 273.664062 320.996094 273.664062 L 311.191406 273.664062 C 307.382812 273.664062 304.289062 270.566406 304.289062 266.75 L 304.289062 195.660156 " fill-opacity="1" fill-rule="nonzero"/></g><path fill="#009fe3" d="M 56.703125 239.761719 C 50.304688 239.761719 45.132812 234.601562 45.132812 228.230469 L 45.132812 191.027344 C 45.132812 184.65625 50.304688 179.496094 56.703125 179.496094 L 322.832031 179.496094 C 329.21875 179.496094 334.402344 184.65625 334.402344 191.027344 L 334.402344 228.230469 C 334.402344 234.601562 329.21875 239.761719 322.832031 239.761719 L 56.703125 239.761719 " fill-opacity="1" fill-rule="nonzero"/><g clip-path="url(#e55fa96097)"><path fill="#010066" d="M 149.179688 252.257812 C 141.472656 252.257812 135.226562 245.332031 135.226562 236.789062 L 135.226562 186.9375 C 135.226562 178.394531 141.472656 171.480469 149.179688 171.480469 L 328.074219 171.480469 C 335.777344 171.480469 342.027344 178.394531 342.027344 186.9375 L 342.027344 236.789062 C 342.027344 245.332031 335.777344 252.257812 328.074219 252.257812 L 149.179688 252.257812 " fill-opacity="1" fill-rule="nonzero"/></g><g clip-path="url(#037e80cbec)"><path fill="#010066" d="M 33.324219 108.050781 C 33.324219 104.234375 36.417969 101.152344 40.230469 101.152344 C 40.230469 101.152344 56.949219 105.171875 56.949219 120.546875 L 56.949219 268.355469 C 56.949219 270.566406 53.84375 273.664062 50.03125 273.664062 L 40.230469 273.664062 C 36.417969 273.664062 33.324219 270.566406 33.324219 266.75 L 33.324219 108.050781 " fill-opacity="1" fill-rule="nonzero"/></g></svg>