<?xml version="1.0" encoding="utf-8"?>
<!-- Generator: Adobe Illustrator 27.5.0, SVG Export Plug-In . SVG Version: 6.00 Build 0)  -->
<svg version="1.1" id="Layer_1" xmlns="http://www.w3.org/2000/svg" xmlns:xlink="http://www.w3.org/1999/xlink" x="0px" y="0px"
	 viewBox="0 0 1024 208" style="enable-background:new 0 0 1024 208;" xml:space="preserve">
<style type="text/css">
	.st0{fill:#020166;}
	.st1{font-family:'TimesNewRomanPS-BoldItalicMT';}
	.st2{font-size:46.4798px;}
	.st3{display:none;}
	.st4{fill:#FFFFFF;}
	.st5{fill:none;stroke:#000000;stroke-width:2;stroke-linecap:round;stroke-linejoin:round;stroke-miterlimit:10;}
	.st6{fill:#FD0101;}
</style>
<g>
	<g>
		<path class="st0" d="M296.49,71.02l-9.83,41.28c-0.05,0.21-0.16,0.4-0.31,0.55l-11.47,11.47c-0.22,0.22-0.34,0.51-0.34,0.82v4.73
			c0,0.64,0.52,1.15,1.15,1.15h37.11c0.64,0,1.15-0.52,1.15-1.15v-8.67c0-0.28-0.1-0.54-0.28-0.75l-4.64-5.39
			c-0.24-0.28-0.33-0.65-0.25-1l3.41-15.35c0.2-0.91,1.34-1.22,1.97-0.53l29.95,32.47c0.22,0.24,0.53,0.37,0.85,0.37h32.51
			c0.54,0,1.01-0.38,1.13-0.91l12.25-57.24c0.05-0.25,0.19-0.48,0.39-0.64l11.42-9.51c0.21-0.17,0.47-0.27,0.74-0.27h15.65
			c0.29,0,0.57,0.11,0.79,0.31l22.78,21.29c0.31,0.29,0.44,0.73,0.33,1.14l-7.73,29c-0.08,0.28-0.26,0.53-0.5,0.68l-15.13,9.46
			c-0.34,0.21-0.54,0.58-0.54,0.98v4.23c0,0.63,0.51,1.15,1.15,1.15l77.82,0.33c0.63,0,1.15-0.5,1.16-1.13l0.14-8.46
			c0.01-0.47-0.27-0.89-0.7-1.08l-12.53-5.37c-0.47-0.2-0.76-0.7-0.69-1.21l2.69-20.4c0.04-0.28,0.18-0.55,0.4-0.73l42.15-35.53
			c0.46-0.39,1.13-0.36,1.56,0.07l14.89,14.89c0.26,0.26,0.38,0.63,0.32,1l-5.86,37.14c-0.04,0.27-0.18,0.51-0.38,0.69l-15.35,13.43
			c-0.25,0.22-0.39,0.54-0.39,0.87v4.69c0,0.64,0.52,1.15,1.15,1.15h55.34c0.64,0,1.15-0.52,1.15-1.15v-8.78
			c0-0.29-0.11-0.56-0.3-0.77l-4.78-5.26c-0.25-0.27-0.35-0.64-0.28-1l1.81-9.03c0.06-0.28,0.21-0.53,0.44-0.7l6.67-5
			c0.54-0.41,1.31-0.26,1.67,0.31l8.88,14.21c0.28,0.46,0.22,1.05-0.16,1.43l-7.04,7.04c-0.22,0.22-0.34,0.51-0.34,0.82v6.4
			c0,0.64,0.52,1.15,1.15,1.15h56.58c0.64,0,1.15-0.52,1.15-1.15v-9.74c0-0.64-0.52-1.15-1.15-1.15h-5.01
			c-0.34,0-0.66-0.15-0.88-0.41l-31-36.81c-0.42-0.5-0.34-1.25,0.17-1.65l26.85-21.09c0.2-0.16,0.45-0.25,0.71-0.25h16.51
			c0.64,0,1.15-0.52,1.15-1.15v-9.74c0-0.64-0.52-1.15-1.15-1.15h-49.88c-0.64,0-1.15,0.52-1.15,1.15v8.4c0,0.31,0.12,0.6,0.34,0.82
			l3.86,3.86c0.45,0.45,0.45,1.18,0,1.63l-9.41,9.41c-0.45,0.45-1.18,0.45-1.63,0l-7.4-7.4c-0.45-0.45-0.45-1.18,0-1.63l6.87-6.87
			c0.22-0.22,0.34-0.51,0.34-0.82v-7.4c0-0.64-0.52-1.15-1.15-1.15H494.45c-0.64,0-1.15,0.52-1.15,1.15v8.4
			c0,0.31,0.12,0.6,0.34,0.82l3.86,3.86c0.45,0.45,0.45,1.18,0,1.63l-11.41,11.41c-0.45,0.45-1.18,0.45-1.63,0l-7.4-7.4
			c-0.45-0.45-0.45-1.18,0-1.63l8.88-8.88c0.22-0.22,0.34-0.51,0.34-0.82v-7.4c0-0.64-0.52-1.15-1.15-1.15H371.71
			c-0.5,0-0.94,0.32-1.09,0.79l-3.48,10.45c-0.16,0.48,0.01,1.01,0.42,1.3L380.25,68c0.4,0.28,0.57,0.79,0.44,1.25l-7.8,27.32h-2.01
			l-45.82-49.8c-0.22-0.24-0.53-0.37-0.85-0.37h-34.47c-0.64,0-1.15,0.52-1.15,1.15v12.49c0,0.26,0.09,0.52,0.25,0.72l7.42,9.28
			C296.49,70.31,296.57,70.68,296.49,71.02z"/>
		<path class="st0" d="M683.42,100.58h-37.05c-0.3,0-0.54-0.24-0.54-0.54V85.07c0-0.3,0.24-0.54,0.54-0.54h37.05
			c0.3,0,0.54,0.24,0.54,0.54v14.97C683.96,100.34,683.72,100.58,683.42,100.58z"/>
	</g>
	<g>
		<path class="st0" d="M691.99,47.1v22.37c0,0.15,0.05,0.3,0.14,0.42l45.81,62.51c0.13,0.18,0.34,0.29,0.57,0.29h56.43
			c0.58,0,0.91-0.66,0.56-1.13l-17.07-22.77c-0.09-0.12-0.14-0.27-0.14-0.42v-7.09c0-0.39,0.32-0.71,0.71-0.71l16.65,0.04
			c0.39,0,0.71-0.32,0.71-0.71V84.27c0-0.4-0.33-0.72-0.72-0.71l-35.1,0.95c-0.19,0.01-0.38-0.07-0.52-0.21l-9.61-9.61
			c-0.13-0.13-0.21-0.31-0.21-0.5v-9.04c0-0.39,0.32-0.71,0.71-0.71h46.76c0.39,0,0.71-0.32,0.71-0.71V47.69
			c0-0.39-0.31-0.7-0.7-0.71L692.7,46.4C692.31,46.39,691.99,46.71,691.99,47.1z"/>
		<path class="st0" d="M883.68,66.46h-44.2c-0.54,0-0.98-0.44-0.98-0.98V49.38c0-0.54,0.44-0.98,0.98-0.98h44.2
			c0.54,0,0.98,0.44,0.98,0.98v16.11C884.66,66.02,884.22,66.46,883.68,66.46z"/>
		<path class="st0" d="M883.4,132.69h-43.65c-0.69,0-1.26-0.56-1.26-1.26V77.75c0-0.69,0.56-1.26,1.26-1.26h43.65
			c0.69,0,1.26,0.56,1.26,1.26v53.68C884.66,132.13,884.1,132.69,883.4,132.69z"/>
		<path class="st0" d="M965.97,132.69h-44.2c-0.54,0-0.98-0.44-0.98-0.98V47.37c0-0.54,0.44-0.98,0.98-0.98h44.2
			c0.54,0,0.98,0.44,0.98,0.98v84.34C966.94,132.25,966.51,132.69,965.97,132.69z"/>
	</g>
</g>
<g>
	<text transform="matrix(1.0932 0 0 1 273.9648 183.0586)" class="st0 st1 st2">MARITIME E-TRAINING, INC.</text>
</g>
<g class="st3">
	<text transform="matrix(1.2316 0 0 1 0.1846 371.0586)" class="st1 st2" style="display:inline;fill:#020166;">SHIP MANAGEMENT, INC.</text>
</g>
<g>
	<g>
		<path class="st4" d="M55.78,21.3c-5.06,0-9.03-2.64-9.03-6.02c0-3.37,3.97-6.02,9.03-6.02s9.03,2.64,9.03,6.02
			C64.81,18.66,60.85,21.3,55.78,21.3z"/>
		<path d="M55.78,10.27c4.43,0,8.03,2.25,8.03,5.02c0,2.77-3.59,5.02-8.03,5.02s-8.03-2.25-8.03-5.02
			C47.76,12.51,51.35,10.27,55.78,10.27 M55.78,8.27c-5.62,0-10.03,3.08-10.03,7.02s4.4,7.02,10.03,7.02s10.03-3.08,10.03-7.02
			S61.41,8.27,55.78,8.27L55.78,8.27z"/>
	</g>
	<path class="st4" d="M96.52,166.81l13.45-6.02c0,0-16.06-104.7-46.16-138.65h-2.9l-5.12,1.56L96.52,166.81z"/>
	<path class="st5" d="M103.95,162.8c0,0-24.87-101.51-48.95-140.8l40.92,144.81"/>
	<path class="st5" d="M109.97,160.79c0,0-14.86-98.64-46.97-140.79"/>
	<path class="st6" d="M88.1,69.25"/>
	<g>
		<path class="st4" d="M109.97,140.72c0,0,24.08-8.03,68.24,4.01c18.06,4.01,41.12-19.29,83.78-6.64
			c-13.54-29.49-1.49-51.57-17.55-63.61s-22.08-28.1-20.07-48.17c-14.05-6.02-56.19,18.06-90.31,2.01c-20.07-8.03-58.2-4.01-64.22,0
			C69.83,28.33,99.94,84.52,109.97,140.72z"/>
		<path class="st6" d="M79.87,50.41c0,0,18.06-10.03,60.21,2.01c30.1,8.03,62.22-10.03,84.29-4.01L237,68l-65.24,10.27
			c-1.05,0.15-2.12,0.24-3.18,0.21c-25.54-0.8-50.8-20.26-80.48-9.23L79.87,50.41z"/>
		<path class="st6" d="M96,93c0,0,19.99-8.48,62.14,3.57c30.1,8.03,72.25-10.03,94.33-4.01l2.01,20.07l-64.65,9.8
			c-1.05,0.15-8.55,0.27-9.61,0.23c-25.54-0.8-48.53-19.69-78.22-8.66L96,93z"/>
		<path class="st5" d="M107,141c0,0,26.63-8.61,70.78,3.43c18.06,4.01,41.12-19.29,83.78-6.64c-13.54-29.49-1.49-51.57-17.55-63.61
			s-22.08-28.1-20.07-48.17c-14.05-6.02-56.19,18.06-90.31,2.01c-20.07-8.03-58.2-4.01-64.22,0C69.41,28.03,96.97,84.81,107,141z"/>
	</g>
</g>
</svg>
